# xmcd CD database file
#
# Track frame offsets:
#	150
#	42399
#	86302
#	111549
#	163688
#	206067
#	254271
#	286767
#	322554
#
# Disc length: 4726 seconds
#
# Revision: 0
# Processed by: cddbd v1.5.2PL0 Copyright (c) Steve Scherf et al.
# Submitted via: CDex 1.70beta2
#
DISCID=74127409
DTITLE=(V-A) - The Art of Jazz - 1959 Jazz' Greatest Year CD1
DYEAR=1959
DGENRE=Jazz
TTITLE0=So What
TTITLE1=Freddie Freeloader
TTITLE2=Blue In Green
TTITLE3=All Blues
TTITLE4=Flamenco Sketches
TTITLE5=Blue Train
TTITLE6=Locomotion
TTITLE7=I'm Old Fashioned
TTITLE8=Lazy Bird
EXTD=YEAR: 1959
EXTT0=
EXTT1=
EXTT2=
EXTT3=
EXTT4=
EXTT5=
EXTT6=
EXTT7=
EXTT8=
PLAYORDER=
